<?xml version="1.0" encoding="utf-8"?>
<!-- Generator: Adobe Illustrator 19.0.0, SVG Export Plug-In . SVG Version: 6.00 Build 0)  -->
<svg version="1.1" id="Layer_1" xmlns="http://www.w3.org/2000/svg" xmlns:xlink="http://www.w3.org/1999/xlink" x="0px" y="0px"
	 viewBox="-241 333 128 128" style="enable-background:new -241 333 128 128;" xml:space="preserve">
<style type="text/css">
	.st0{fill:#FFFFFF;}
</style>
<path class="st0" d="M-143.1,400.9c0.2,18.8,16.5,25.1,16.7,25.1c-0.1,0.4-2.6,8.9-8.6,17.7c-5.2,7.6-10.6,15.1-19,15.3
	c-8.3,0.2-11-4.9-20.5-4.9c-9.5,0-12.5,4.8-20.4,5.1c-8.2,0.3-14.4-8.2-19.6-15.7c-10.7-15.4-18.8-43.6-7.9-62.6
	c5.4-9.4,15.2-15.4,25.7-15.6c8-0.2,15.6,5.4,20.5,5.4c4.9,0,14.1-6.7,23.8-5.7c4.1,0.2,15.4,1.6,22.7,12.3
	C-130.3,377.6-143.2,385.2-143.1,400.9 M-158.7,354.7c4.3-5.3,7.3-12.6,6.5-19.8c-6.3,0.3-13.8,4.2-18.3,9.4
	c-4,4.6-7.5,12.1-6.6,19.2C-170.2,364.1-163.1,360-158.7,354.7"/>
</svg>
