<?xml version="1.0" encoding="utf-8"?>
<!-- Generator: Adobe Illustrator 19.0.0, SVG Export Plug-In . SVG Version: 6.00 Build 0)  -->
<svg version="1.1" id="Layer_1" xmlns="http://www.w3.org/2000/svg" xmlns:xlink="http://www.w3.org/1999/xlink" x="0px" y="0px"
	 viewBox="-241 333 128 128" style="enable-background:new -241 333 128 128;" xml:space="preserve">
<style type="text/css">
	.st0{fill:#FFFFFF;}
</style>
<g>
	<path class="st0" d="M-177,338.1c-33.3,0-60.4,27-60.4,60.4c0,26.7,17.3,49.3,41.3,57.3c3,0.6,4.1-1.3,4.1-2.9
		c0-1.4-0.1-6.2-0.1-11.2c-16.8,3.7-20.3-7.1-20.3-7.1c-2.7-7-6.7-8.8-6.7-8.8c-5.5-3.7,0.4-3.7,0.4-3.7c6.1,0.4,9.3,6.2,9.3,6.2
		c5.4,9.2,14.1,6.6,17.6,5c0.5-3.9,2.1-6.6,3.8-8.1c-13.4-1.5-27.5-6.7-27.5-29.8c0-6.6,2.4-12,6.2-16.2c-0.6-1.5-2.7-7.7,0.6-16
		c0,0,5.1-1.6,16.6,6.2c4.8-1.3,10-2,15.1-2c5.1,0,10.3,0.7,15.1,2c11.5-7.8,16.6-6.2,16.6-6.2c3.3,8.3,1.2,14.5,0.6,16
		c3.9,4.2,6.2,9.6,6.2,16.2c0,23.2-14.1,28.3-27.6,29.8c2.2,1.9,4.1,5.5,4.1,11.2c0,8.1-0.1,14.6-0.1,16.6c0,1.6,1.1,3.5,4.1,2.9
		c24-8,41.3-30.6,41.3-57.3C-116.6,365.1-143.6,338.1-177,338.1L-177,338.1z"/>
	<path class="st0" d="M-214.5,424.8c-0.1,0.3-0.6,0.4-1,0.2c-0.4-0.2-0.7-0.6-0.5-0.9c0.1-0.3,0.6-0.4,1-0.2
		C-214.6,424.1-214.4,424.5-214.5,424.8L-214.5,424.8z M-212.1,427.5c-0.3,0.3-0.8,0.1-1.2-0.3c-0.4-0.4-0.5-1-0.2-1.3
		c0.3-0.3,0.8-0.1,1.2,0.3C-211.8,426.7-211.8,427.3-212.1,427.5L-212.1,427.5z M-209.7,431c-0.4,0.3-1,0-1.3-0.5
		c-0.4-0.5-0.4-1.2,0-1.4c0.4-0.3,1,0,1.4,0.5C-209.3,430.1-209.3,430.7-209.7,431L-209.7,431z M-206.4,434.4
		c-0.3,0.4-1,0.3-1.6-0.2c-0.5-0.5-0.7-1.2-0.3-1.5c0.3-0.4,1-0.3,1.6,0.2C-206.2,433.3-206.1,434-206.4,434.4L-206.4,434.4z
		 M-201.9,436.3c-0.1,0.5-0.8,0.7-1.5,0.5c-0.7-0.2-1.1-0.8-1-1.2c0.1-0.5,0.8-0.7,1.5-0.5C-202.2,435.3-201.8,435.8-201.9,436.3z
		 M-197,436.7c0,0.5-0.6,0.9-1.3,0.9c-0.7,0-1.3-0.4-1.3-0.9c0-0.5,0.6-0.9,1.3-0.9C-197.6,435.8-197,436.2-197,436.7L-197,436.7z
		 M-192.4,435.9c0.1,0.5-0.4,1-1.1,1.1c-0.7,0.1-1.4-0.2-1.4-0.7c-0.1-0.5,0.4-1,1.1-1.1C-193.1,435.1-192.5,435.4-192.4,435.9
		L-192.4,435.9z"/>
</g>
</svg>
