<?xml version="1.0" encoding="utf-8"?>
<!-- Generator: Adobe Illustrator 22.0.0, SVG Export Plug-In . SVG Version: 6.00 Build 0)  -->
<svg version="1.1" id="Layer_1" xmlns="http://www.w3.org/2000/svg" xmlns:xlink="http://www.w3.org/1999/xlink" x="0px" y="0px"
	 viewBox="0 0 32 32" style="enable-background:new 0 0 32 32;" xml:space="preserve">
<style type="text/css">
	.st0{fill:#09FDD8;}
</style>
<path class="st0" d="M29.7,15.8l-13-13c-0.4-0.4-1-0.4-1.4,0l-13,13c-0.4,0.4-0.4,1,0,1.4s1,0.4,1.4,0L16,4.9l8,8c0,0,0,0,0,0.1v15
	H8V18c0-0.6-0.4-1-1-1s-1,0.4-1,1v11c0,0.6,0.4,1,1,1h18c0.6,0,1-0.4,1-1V14.9l2.3,2.3c0.2,0.2,0.5,0.3,0.7,0.3s0.5-0.1,0.7-0.3
	C30.1,16.8,30.1,16.2,29.7,15.8z"/>
</svg>
