<?xml version="1.0" encoding="utf-8"?>
<!-- Generator: Adobe Illustrator 22.0.0, SVG Export Plug-In . SVG Version: 6.00 Build 0)  -->
<svg version="1.1" id="Layer_1" xmlns:sketch="http://www.bohemiancoding.com/sketch/ns"
	 xmlns="http://www.w3.org/2000/svg" xmlns:xlink="http://www.w3.org/1999/xlink" x="0px" y="0px" viewBox="0 0 60 60"
	 style="enable-background:new 0 0 60 60;" xml:space="preserve">
<style type="text/css">
	.st0{fill:#7C7C7C;}
</style>
<title></title>
<desc></desc>
<g id="black">
	<g id="slice" transform="translate(-600.000000, 0.000000)">
	</g>
	<g id="linkedin" transform="translate(16.000000, 17.000000)">
		<path class="st0" d="M5.9,26.8V8.5H0.2v18.3H5.9z M5.9,2c0-1.6-1.1-2.9-2.9-2.9C1.2-0.8,0.1,0.4,0.1,2S1.2,4.9,3,4.9l0,0
			C4.8,4.9,5.9,3.6,5.9,2z M15.1,26.8V16.4c0-0.6,0-1.1,0.2-1.5c0.4-1.1,1.5-2.3,3.2-2.3c2.2,0,3.7,1.3,3.7,3.8v10.4h5.7V16.1
			c0-5.7-3.1-8.4-7.1-8.4c-3.3,0-4.8,1.9-5.6,3.1V8.4H9.4c0.1,1.8,0,18.4,0,18.4S15.1,26.8,15.1,26.8z"/>
	</g>
</g>
</svg>
