<?xml version="1.0" encoding="utf-8"?>
<!-- Generator: Adobe Illustrator 22.0.0, SVG Export Plug-In . SVG Version: 6.00 Build 0)  -->
<svg version="1.1" id="Layer_1" xmlns="http://www.w3.org/2000/svg" xmlns:xlink="http://www.w3.org/1999/xlink" x="0px" y="0px"
	 viewBox="0 0 32 32" style="enable-background:new 0 0 32 32;" xml:space="preserve">
<style type="text/css">
	.st0{fill:none;stroke:#FFFFFF;stroke-width:2;stroke-linecap:round;stroke-linejoin:round;stroke-miterlimit:10;}
	.st1{fill:#7C7C7C;}
</style>
<g>
	<polyline class="st0" points="649,138 675,138 675,156 661,156 	"/>
	<polyline class="st0" points="653,156 649,156 649,142 	"/>
	<polyline class="st0" points="661,156 653,162 653,156 	"/>
</g>
<g>
	<path class="st1" d="M29,27H3c-0.6,0-1-0.4-1-1V10c0-0.6,0.4-1,1-1s1,0.4,1,1v15h24V7H3C2.4,7,2,6.6,2,6s0.4-1,1-1h26
		c0.6,0,1,0.4,1,1v20C30,26.6,29.6,27,29,27z"/>
</g>
<g>
	<path class="st1" d="M16,19c-0.3,0-0.5-0.1-0.7-0.3l-8-8c-0.4-0.4-0.4-1,0-1.4s1-0.4,1.4,0l7.3,7.3l7.3-7.3c0.4-0.4,1-0.4,1.4,0
		s0.4,1,0,1.4l-8,8C16.5,18.9,16.3,19,16,19z"/>
</g>
<g>
	<path class="st1" d="M24,23c-0.3,0-0.5-0.1-0.7-0.3l-3-3c-0.4-0.4-0.4-1,0-1.4s1-0.4,1.4,0l3,3c0.4,0.4,0.4,1,0,1.4
		C24.5,22.9,24.3,23,24,23z"/>
</g>
<g>
	<path class="st1" d="M8,23c-0.3,0-0.5-0.1-0.7-0.3c-0.4-0.4-0.4-1,0-1.4l3-3c0.4-0.4,1-0.4,1.4,0s0.4,1,0,1.4l-3,3
		C8.5,22.9,8.3,23,8,23z"/>
</g>
</svg>
