<?xml version="1.0" encoding="utf-8"?>
<!-- Generator: Adobe Illustrator 22.0.0, SVG Export Plug-In . SVG Version: 6.00 Build 0)  -->
<svg version="1.1" id="Layer_1" xmlns="http://www.w3.org/2000/svg" xmlns:xlink="http://www.w3.org/1999/xlink" x="0px" y="0px"
	 viewBox="0 0 32 32" style="enable-background:new 0 0 32 32;" xml:space="preserve">
<style type="text/css">
	.st0{fill:#09FDD8;}
</style>
<g>
	<path class="st0" d="M30,16c0-2-1.4-3.6-3.3-3.9l-0.3-0.8c1.1-1.6,0.9-3.7-0.4-5.1c-1.3-1.3-3.6-1.5-5.1-0.4l-0.8-0.3
		C19.6,3.4,18,2,16,2s-3.6,1.4-3.9,3.3l-0.8,0.3C9.7,4.6,7.5,4.7,6.1,6.1C5.3,6.9,4.9,7.9,4.9,8.9c0,0.8,0.3,1.6,0.7,2.3l-0.3,0.8
		C3.4,12.4,2,14,2,16l0,0l0,0c0,2,1.4,3.6,3.3,3.9l0.3,0.8c-1.1,1.6-0.9,3.7,0.4,5.1c1.3,1.3,3.6,1.5,5.1,0.4l0.8,0.3
		c0.3,1.9,2,3.3,3.9,3.3c2,0,3.6-1.4,3.9-3.3l0.8-0.3c1.6,1.1,3.7,0.9,5.1-0.4c0.8-0.8,1.2-1.8,1.2-2.8c0-0.8-0.3-1.6-0.7-2.3
		l0.3-0.8C28.6,19.6,30,18,30,16C30,16,30,16,30,16L30,16z M26,18c-0.4,0-0.8,0.2-0.9,0.6l-0.8,1.9c-0.2,0.4-0.1,0.8,0.2,1.1
		c0.4,0.4,0.6,0.9,0.6,1.4c0,0.5-0.2,1-0.6,1.4c-0.8,0.8-2.1,0.8-2.8,0c-0.3-0.3-0.7-0.4-1.1-0.2l-1.9,0.8C18.2,25.2,18,25.6,18,26
		c0,1.1-0.9,2-2,2s-2-0.9-2-2c0-0.4-0.2-0.8-0.6-0.9l-1.9-0.8c-0.4-0.2-0.8-0.1-1.1,0.2c-0.8,0.8-2.1,0.8-2.8,0
		c-0.8-0.8-0.8-2,0-2.8c0.3-0.3,0.4-0.7,0.2-1.1l-0.8-1.9C6.8,18.2,6.4,18,6,18c-1.1,0-2-0.9-2-2l0,0l0,0c0-1.1,0.9-2,2-2
		c0.4,0,0.8-0.2,0.9-0.6l0.8-1.9c0.2-0.4,0.1-0.8-0.2-1.1C7.1,10,6.9,9.5,6.9,8.9c0-0.5,0.2-1,0.6-1.4c0.8-0.8,2-0.8,2.8,0
		c0.3,0.3,0.7,0.4,1.1,0.2l1.9-0.8C13.8,6.8,14,6.4,14,6c0-1.1,0.9-2,2-2s2,0.9,2,2c0,0.4,0.2,0.8,0.6,0.9l2,0.8
		c0.4,0.2,0.8,0.1,1.1-0.2c0.8-0.8,2.1-0.8,2.8,0c0.8,0.8,0.8,2,0,2.8c-0.3,0.3-0.4,0.7-0.2,1.1l0.8,1.9c0.2,0.4,0.5,0.6,0.9,0.6
		c1.1,0,2,0.9,2,2l0,0l0,0C28,17.1,27.1,18,26,18z"/>
	<path class="st0" d="M16,11c-2.8,0-5,2.2-5,5s2.2,5,5,5c0.6,0,1-0.4,1-1s-0.4-1-1-1c-1.7,0-3-1.3-3-3s1.3-3,3-3s3,1.3,3,3
		c0,0.6-0.2,1.1-0.5,1.6c-0.3,0.5-0.2,1.1,0.3,1.4c0.5,0.3,1.1,0.2,1.4-0.3C20.7,17.9,21,17,21,16C21,13.2,18.8,11,16,11z"/>
</g>
</svg>
