<?xml version="1.0" encoding="utf-8"?>
<!-- Generator: Adobe Illustrator 22.0.0, SVG Export Plug-In . SVG Version: 6.00 Build 0)  -->
<svg version="1.1" id="Layer_1" xmlns="http://www.w3.org/2000/svg" xmlns:xlink="http://www.w3.org/1999/xlink" x="0px" y="0px"
	 viewBox="0 0 24 24" style="enable-background:new 0 0 24 24;" xml:space="preserve">
<style type="text/css">
	.st0{fill:#7C7C7C;}
</style>
<g>
	<path class="st0" d="M18,8c0.6-0.4,1-1,1.3-1.6C18.6,6.7,18,7,17.4,7.1c-0.6-0.6-1.3-0.9-2.2-0.9c-0.8,0-1.5,0.3-2.1,0.9
		c-0.6,0.6-0.9,1.3-0.9,2.1c0,0.2,0,0.5,0.1,0.6c-2.4-0.2-4.4-1.2-6-3.1C6,7.2,5.8,7.7,5.8,8.2c0,1,0.4,1.8,1.3,2.5
		c-0.5-0.1-1-0.2-1.3-0.4c0,0.7,0.2,1.4,0.6,1.9c0.4,0.6,1,0.9,1.7,1c-0.2,0.1-0.5,0.1-0.8,0.1c-0.2,0-0.4,0-0.6-0.1
		c0.2,0.6,0.6,1.1,1,1.4c0.5,0.4,1,0.6,1.8,0.6c-1,0.8-2.3,1.3-3.7,1.3c-0.3,0-0.6,0-0.7,0c1.4,0.9,2.9,1.3,4.6,1.3s3.2-0.4,4.6-1.3
		c1.3-0.9,2.3-1.9,2.9-3.2c0.6-1.3,1-2.6,1-3.9V9c0.6-0.5,1.1-1,1.4-1.5C19.1,7.8,18.6,7.9,18,8z"/>
</g>
</svg>
