<?xml version="1.0" encoding="UTF-8"?>
<svg width="28px" height="28px" viewBox="0 0 28 28" version="1.1" xmlns="http://www.w3.org/2000/svg" xmlns:xlink="http://www.w3.org/1999/xlink">
    <!-- Generator: Sketch 51.1 (57501) - http://www.bohemiancoding.com/sketch -->
    <title>Artboard</title>
    <desc>Created with Sketch.</desc>
    <defs></defs>
    <g id="Artboard" stroke="none" stroke-width="1" fill="none" fill-rule="evenodd">
        <g id="user-active" fill="#7B7B7B" fill-rule="nonzero">
            <path d="M19.9,13.7925926 C21.2,12.3407407 22,10.3703704 22,8.2962963 C22,3.73333333 18.4,0 14,0 C9.6,0 6,3.73333333 6,8.2962963 C6,12.8592593 9.6,16.5925926 14,16.5925926 C15.6,16.5925926 17,16.0740741 18.2,15.3481481 C22.6,17.0074074 25.5,21.1555556 25.9,25.9259259 L2,25.9259259 C2.3,22.7111111 3.7,19.7037037 6.1,17.5259259 C6.5,17.1111111 6.6,16.4888889 6.2,16.0740741 C5.8,15.6592593 5.2,15.5555556 4.8,15.9703704 C1.8,18.7703704 0,22.8148148 0,26.962963 C0,27.5851852 0.4,28 1,28 L27,28 C27.6,28 28,27.5851852 28,26.962963 C28,21.2592593 24.8,16.1777778 19.9,13.7925926 Z M8,8.2962963 C8,4.87407407 10.7,2.07407407 14,2.07407407 C17.3,2.07407407 20,4.87407407 20,8.2962963 C20,11.7185185 17.3,14.5185185 14,14.5185185 C10.7,14.5185185 8,11.7185185 8,8.2962963 Z" id="Shape"></path>
        </g>
    </g>
</svg>